<?xml version="1.0" encoding="UTF-8"?>
<svg width="200px" height="200px" viewBox="0 0 200 200" version="1.1" xmlns="http://www.w3.org/2000/svg" xmlns:xlink="http://www.w3.org/1999/xlink">
    <!-- Generator: Sketch 44.1 (41455) - http://www.bohemiancoding.com/sketch -->
    <title>flag-uk</title>
    <desc>Created with Sketch.</desc>
    <defs>
        <ellipse id="path-1" cx="98.660917" cy="100" rx="99.660917" ry="100"></ellipse>
    </defs>
    <g id="Page-1" stroke="none" stroke-width="1" fill="none" fill-rule="evenodd">
        <g id="flag-uk" transform="translate(1.000000, 0.000000)">
            <mask id="mask-2" fill="white">
                <use xlink:href="#path-1"></use>
            </mask>
            <use id="Oval" fill="#D8D8D8" xlink:href="#path-1"></use>
            <path d="M244.725343,199.490533 L-46.7940439,199.490533 C-49.6688781,199.490533 -52,197.151479 -52,194.266864 L-52,6.22366864 C-52,3.33905325 -49.6688781,1 -46.7940439,1 L244.725932,1 C247.600767,1 249.931889,3.33905325 249.931889,6.22366864 L249.931889,194.266864 C249.931299,197.151479 247.600177,199.490533 244.725343,199.490533 Z" id="Shape" stroke="#979797" fill="#41479B" fill-rule="nonzero" mask="url(#mask-2)"></path>
            <path d="M249.931299,6.22366864 C249.931299,3.33905325 247.600177,1 244.725343,1 L221.434763,1 L124.993661,64.4005917 L124.993661,1 L72.9364588,1 L72.9364588,64.4005917 L-23.5040543,1 L-46.7940439,1 C-49.6688781,1 -52,3.33905325 -52,6.22366864 L-52,19.7331361 L30.7415598,74.1278107 L-52,74.1278107 L-52,126.36213 L30.7415598,126.36213 L-52,180.757396 L-52,194.266864 C-52,197.151479 -49.6688781,199.490533 -46.7940439,199.490533 L-23.5034645,199.490533 L72.9376382,136.089941 L72.9376382,199.490533 L124.99484,199.490533 L124.99484,136.089941 L221.435943,199.490533 L244.726522,199.490533 C247.601356,199.490533 249.932478,197.151479 249.932478,194.266864 L249.932478,180.757396 L167.190918,126.362722 L249.931299,126.362722 L249.931299,74.1284024 L167.189739,74.1284024 L249.931299,19.7331361 L249.931299,6.22366864 Z" id="Shape" fill="#F5F5F5" fill-rule="nonzero" mask="url(#mask-2)"></path>
            <g id="Group" mask="url(#mask-2)" fill-rule="nonzero" fill="#FF4B55">
                <g transform="translate(-52.000000, 1.000000)" id="Shape">
                    <polygon points="301.931299 83.7384615 166.582928 83.7384615 166.582928 0.163313609 135.348371 0.163313609 135.348371 83.7384615 0 83.7384615 0 115.078698 135.348371 115.078698 135.348371 198.653846 166.582928 198.653846 166.582928 115.078698 301.931299 115.078698"></polygon>
                    <path d="M105.527348,125.525444 L0.147427392,194.162722 C0.515995872,196.685207 2.588825,198.653846 5.20536636,198.653846 L12.375645,198.653846 L124.65045,125.526036 L105.527348,125.526036 L105.527348,125.525444 Z"></path>
                    <path d="M204.268318,125.525444 L185.145216,125.525444 L297.256671,198.545562 C299.869674,198.266272 301.931889,196.125444 301.931889,193.429586 L301.931889,189.134911 L204.268318,125.525444 Z"></path>
                    <path d="M0,11.1532544 L95.4026242,73.291716 L114.525726,73.291716 L3.03287631,0.672781065 C1.25195341,1.50295858 0,3.28698225 0,5.38698225 L0,11.1532544 Z"></path>
                    <path d="M196.117352,73.291716 L301.750258,4.4887574 C301.311514,2.04970414 299.282913,0.163905325 296.725343,0.163905325 L289.267286,0.163905325 L176.99425,73.291716 L196.117352,73.291716 Z"></path>
                </g>
            </g>
        </g>
    </g>
</svg>